<svg width="96" height="96" viewBox="0 0 96 96" fill="none" xmlns="http://www.w3.org/2000/svg">
  <rect x="6" y="6" width="84" height="84" rx="24" fill="#0F172A"/>
  <path d="M18 39H78V68C78 73.5 73.5 78 68 78H28C22.5 78 18 73.5 18 68V39Z" fill="#F8FAFC"/>
  <path d="M18 39L24.5 21C25.3 18.8 27.4 17.3 29.8 17.3H66.2C68.6 17.3 70.7 18.8 71.5 21L78 39H18Z" fill="#14B8A6"/>
  <path d="M18 39H78V45C78 50 74 54 69 54C65.4 54 62.2 51.9 60.8 48.9C59.3 51.9 56.2 54 52.5 54C48.8 54 45.7 51.9 44.2 48.9C42.8 51.9 39.6 54 36 54C32.4 54 29.2 51.9 27.8 48.9C26.3 51.9 23.2 54 19.5 54C19 54 18.5 54 18 53.9V39Z" fill="#F97316"/>
  <path d="M27.8 48.9C29.2 51.9 32.4 54 36 54C39.6 54 42.8 51.9 44.2 48.9C45.7 51.9 48.8 54 52.5 54C56.2 54 59.3 51.9 60.8 48.9C62.2 51.9 65.4 54 69 54C74 54 78 50 78 45V39" stroke="#0F172A" stroke-width="2.5" stroke-linecap="round" stroke-linejoin="round"/>
  <path d="M28 39L32 18M44 39L45 18M60 39L56 18" stroke="#0F172A" stroke-width="2.5" stroke-linecap="round"/>
  <path d="M31 64H65" stroke="#0F172A" stroke-width="5" stroke-linecap="round"/>
  <path d="M35 72H61" stroke="#CBD5E1" stroke-width="3" stroke-linecap="round"/>
  <path d="M48 22V34M42 28H54" stroke="#F8FAFC" stroke-width="4" stroke-linecap="round"/>
  <rect x="6" y="6" width="84" height="84" rx="24" stroke="rgba(255,255,255,0.26)" stroke-width="2"/>
</svg>
