<svg width="96" height="96" viewBox="0 0 96 96" fill="none" xmlns="http://www.w3.org/2000/svg">
  <rect x="6" y="6" width="84" height="84" rx="24" fill="url(#paint0_linear)"/>
  <rect x="10" y="10" width="76" height="76" rx="20" stroke="rgba(255,255,255,0.28)" stroke-width="2"/>
  <path d="M31.5 31H64.5V35.5H52V41H63V45.5H52V65H46.5V45.5H35.5V41H46.5V35.5H31.5V31ZM35.5 49.5H41C40.1 54.3 38.7 58.3 36.7 61.5L32 58.9C33.7 56.2 34.9 53.1 35.5 49.5ZM56.7 49.5H62.2C62.9 53.2 64.1 56.3 65.8 58.8L61 61.6C59 58.5 57.6 54.5 56.7 49.5Z" fill="white"/>
  <path d="M24 24C28.2 20.3 33.2 17.8 38.7 16.9" stroke="rgba(255,255,255,0.34)" stroke-width="2.4" stroke-linecap="round"/>
  <defs>
    <linearGradient id="paint0_linear" x1="14" y1="12" x2="82" y2="88" gradientUnits="userSpaceOnUse">
      <stop stop-color="#FB7185"/>
      <stop offset="1" stop-color="#B91C1C"/>
    </linearGradient>
  </defs>
</svg>
